<svg width="120" height="120" viewBox="0 0 120 120" fill="none" xmlns="http://www.w3.org/2000/svg">
<rect width="120" height="120" fill="#E8F6FC"/>
<path d="M96.9 95.5706H22.5V86.3813H96.9V95.5706ZM24.6054 93.4726H94.7946V88.4793H24.6054V93.4726Z" fill="#221C46"/>
<path d="M51.9956 63.4045L43.4688 65.4234L43.953 67.4649L52.4798 65.446L51.9956 63.4045Z" fill="#FF7375"/>
<path d="M55.1362 76.6363L46.6094 78.6553L47.0937 80.6968L55.6205 78.6778L55.1362 76.6363Z" fill="#FF7375"/>
<path d="M42.5642 88.4794H31.7012V51.9946H42.5642V88.4794ZM33.8012 86.3814H40.4642V54.0927H33.8012V86.3814Z" fill="#221C46"/>
<path d="M67.2927 88.4794H56.4297V51.9946H67.2927V88.4794ZM58.5297 86.3814H65.1927V54.0927H58.5297V86.3814Z" fill="#221C46"/>
<path d="M40.9564 60.4895H32.1934V62.5875H40.9564V60.4895Z" fill="#221C46"/>
<path d="M65.8568 81.4698H57.0938V83.5679H65.8568V81.4698Z" fill="#221C46"/>
<path d="M40.9564 81.4698H32.1934V83.5679H40.9564V81.4698Z" fill="#221C46"/>
<path d="M40.9564 70.9797H32.1934V73.0777H40.9564V70.9797Z" fill="#221C46"/>
<path d="M58.4105 85.9056L47.8403 88.4083L40.5879 57.8356L51.1581 55.3329L58.4105 85.9056ZM49.3994 85.883L55.8828 84.3479L49.599 57.8582L43.1156 59.3933L49.3994 85.883Z" fill="#FF7375"/>
<path d="M29.1605 81.5407H27.0605V87.4302H29.1605V81.5407Z" fill="#FF7375"/>
<path d="M28.11 82.5897C25.017 82.5897 22.5 80.0751 22.5 76.985C22.5 75.7741 22.881 74.6232 23.601 73.6521L28.11 66.4798L32.622 73.6521C33.342 74.6232 33.72 75.7741 33.72 76.985C33.72 80.0751 31.203 82.5897 28.11 82.5897ZM28.11 70.4241L25.305 74.8779C24.843 75.4893 24.6 76.2177 24.6 76.985C24.6 78.9181 26.175 80.4917 28.11 80.4917C30.045 80.4917 31.62 78.9181 31.62 76.985C31.62 76.2177 31.377 75.4893 30.915 74.8779L30.864 74.806L28.11 70.4241Z" fill="#FF7375"/>
<path d="M74.1879 64.7924H72.0879V72.0756H74.1879V64.7924Z" fill="#221C46"/>
<path d="M74.1879 76.1127H72.0879V83.3958H74.1879V76.1127Z" fill="#221C46"/>
<path d="M87.266 79.7544H85.166V87.0376H87.266V79.7544Z" fill="#221C46"/>
<path d="M81.081 87.4302H78.981V65.227L73.266 59.5174L66.987 65.7935L65.502 64.3099L73.266 56.5501L81.081 64.3578V87.4302Z" fill="#221C46"/>
<path d="M93.4502 87.4302H91.3502V65.8414H80.0312V63.7434H93.4502V87.4302Z" fill="#221C46"/>
<path d="M49.7699 49.9625H47.6699V53.0735H49.7699V49.9625Z" fill="#221C46"/>
<path d="M70.3928 47.3938H68.2928V30.4507C66.8348 29.8543 62.7968 28.4216 57.6758 28.4216C51.6518 28.4216 49.7018 32.7076 49.6808 32.7526L47.7578 31.9103C47.8568 31.6826 50.2928 26.3236 57.6758 26.3236C64.6208 26.3236 69.5948 28.7183 69.8048 28.8202L70.3928 29.108V47.3908V47.3938Z" fill="#221C46"/>
<path d="M29.1488 47.3938H27.0488V29.111L27.6368 28.8232C27.8438 28.7213 32.8208 26.3266 39.7658 26.3266C47.1488 26.3266 49.5818 31.6855 49.6838 31.9133L47.7608 32.7555L48.7238 32.3329L47.7638 32.7585C47.6828 32.5817 45.7358 28.4216 39.7688 28.4216C34.6478 28.4216 30.6128 29.8543 29.1518 30.4507V47.3938H29.1488Z" fill="#221C46"/>
<path d="M49.7699 32.3329H47.6699V49.9624H49.7699V32.3329Z" fill="#221C46"/>
<path d="M72.5404 52.0245H24.9004V54.1225H72.5404V52.0245Z" fill="#221C46"/>
<path d="M36.6717 48.8654H28.0977V50.9635H36.6717V48.8654Z" fill="#221C46"/>
<path d="M69.3422 48.8654H64.6562V50.9635H69.3422V48.8654Z" fill="#221C46"/>
<path d="M70.3928 54.1225H27.0488V46.7404L27.6368 46.4527C27.8468 46.3508 32.8208 43.9561 39.7658 43.9561C44.7038 43.9561 47.4278 46.3538 48.7208 48.0113C50.0138 46.3568 52.7378 43.9561 57.6758 43.9561C64.6208 43.9561 69.5948 46.3508 69.8048 46.4527L70.3928 46.7404V54.1225ZM48.9398 52.0245H68.2928V48.0832C66.8348 47.4867 62.7968 46.0541 57.6758 46.0541C51.7088 46.0541 49.7588 50.2142 49.6808 50.391L48.9428 52.0275L48.9398 52.0245ZM29.1488 52.0245H48.4838L47.7638 50.388C47.6768 50.1962 45.7238 46.0541 39.7688 46.0541C34.6298 46.0541 30.6068 47.4837 29.1518 48.0802V52.0245H29.1488Z" fill="#221C46"/>
<path d="M90.7972 32.8243H88.6972C88.6972 30.1628 86.5312 27.9988 83.8672 27.9988V25.9008C86.5312 25.9008 88.6972 23.7368 88.6972 21.0753H90.7972C90.7972 23.7368 92.9632 25.9008 95.6272 25.9008V27.9988C92.9632 27.9988 90.7972 30.1628 90.7972 32.8243ZM87.5332 26.9498C88.4272 27.5103 89.1892 28.2685 89.7472 29.1617C90.3082 28.2655 91.0672 27.5073 91.9612 26.9498C91.0642 26.3893 90.3052 25.631 89.7472 24.7379C89.1862 25.634 88.4272 26.3923 87.5332 26.9498Z" fill="#FF7375"/>
</svg>
