<svg width="120" height="120" viewBox="0 0 120 120" fill="none" xmlns="http://www.w3.org/2000/svg">
<rect width="120" height="120" fill="#E8F6FC"/>
<path d="M95.8346 95.6279H32.3516V97.7279H95.8346V95.6279Z" fill="#221C46"/>
<path d="M85.3408 36.861H83.2408V29.448L78.5938 25.605L79.9318 23.985L85.3408 28.458V36.861Z" fill="#221C46"/>
<path d="M93.2606 42.4861H92.9606C92.9606 40.9321 91.6976 39.6661 90.1406 39.6661V39.3661C91.8596 39.3661 93.2606 40.7641 93.2606 42.4861Z" fill="#221C46"/>
<path d="M94.1606 42.486H92.0606C92.0606 41.427 91.1996 40.566 90.1406 40.566V38.466C92.3576 38.466 94.1606 40.269 94.1606 42.486Z" fill="#221C46"/>
<path d="M88.2387 61.02C86.1387 61.02 84.8577 60.753 84.2757 60.594C83.6817 60.744 82.3527 61.02 80.5677 61.02C78.1887 61.02 74.6247 56.007 73.9347 55.005C72.6567 53.142 69.6777 48.36 69.6777 44.187C69.6777 40.014 71.1537 36.909 74.0607 35.163C78.3747 32.574 82.8777 34.302 84.3987 35.034C85.8807 34.32 90.1827 32.655 94.2357 35.04C97.5267 36.978 99.1257 39.972 99.1257 44.187C99.1257 48.402 96.2757 53.16 95.0517 54.993C94.3797 55.998 90.8877 61.02 88.2357 61.02H88.2387ZM79.0797 35.904C77.8287 35.904 76.4637 36.174 75.1467 36.963C72.9147 38.304 71.7837 40.734 71.7837 44.187C71.7837 50.121 79.0677 58.725 80.5887 58.92C82.6167 58.92 83.9637 58.503 83.9757 58.497L84.3267 58.386L84.6627 58.515C84.6897 58.524 85.8177 58.917 88.2387 58.917C88.8177 58.917 90.8997 57.423 93.3087 53.823C95.6367 50.34 97.0287 46.737 97.0287 44.184C97.0287 39.645 94.8297 37.824 93.1737 36.846C89.3607 34.599 84.9777 37.095 84.9357 37.119L84.4077 37.428L83.8767 37.119C83.8467 37.101 81.7257 35.901 79.0827 35.901L79.0797 35.904Z" fill="#221C46"/>
<path d="M28.0422 45.2562L26.9922 47.0749L30.8633 49.3099L31.9133 47.4912L28.0422 45.2562Z" fill="#221C46"/>
<path d="M44.6571 45.8141L39.7402 55.531L41.614 56.4791L46.5308 46.7623L44.6571 45.8141Z" fill="#221C46"/>
<path d="M53.9069 51.3106L51.7539 55.5233L53.6239 56.479L55.7768 52.2663L53.9069 51.3106Z" fill="#221C46"/>
<path d="M72.4111 61.0199H38.7151C35.7421 61.0199 32.9161 59.5919 31.1551 57.2009C29.4241 54.8519 28.8841 51.8009 29.6971 49.0049V48.9989L29.7451 48.8459C29.7451 48.8459 29.7511 48.8249 29.7541 48.8129V48.8009C30.6061 46.1129 32.6011 43.9919 35.2351 42.9809C37.8841 41.9639 40.8001 42.2129 43.2421 43.6619L72.4141 61.0199H72.4111ZM31.7341 49.5119C31.0711 51.7049 31.4821 54.1079 32.8441 55.9529C34.2121 57.8099 36.4081 58.9199 38.7151 58.9199H64.7761L42.1651 45.4649C40.2841 44.3459 38.0311 44.1539 35.9851 44.9399C33.9901 45.7079 32.4691 47.2979 31.7941 49.3199V49.3649L31.7341 49.5119Z" fill="#221C46"/>
<path d="M27.8993 47.6009L24.5333 45.6569C21.1553 43.7069 19.9943 39.3719 21.9443 35.9939L23.8883 32.6279L27.2543 34.5719C28.8893 35.5169 30.0593 37.0409 30.5483 38.8649C31.0373 40.6889 30.7853 42.5939 29.8433 44.2319L27.8993 47.5979V47.6009ZM24.6563 35.4989L23.7623 37.0469C23.0993 38.1959 22.9223 39.5369 23.2643 40.8209C23.6093 42.1049 24.4313 43.1759 25.5803 43.8389L27.1283 44.7329L28.0223 43.1849C28.6853 42.0359 28.8623 40.6949 28.5203 39.4109C28.1753 38.1269 27.3533 37.0559 26.2043 36.3929L24.6563 35.4989Z" fill="#221C46"/>
<path d="M48.1388 39.174C46.0208 39.174 44.2988 37.452 44.2988 35.334C44.2988 33.216 46.0208 31.494 48.1388 31.494C50.2568 31.494 51.9788 33.216 51.9788 35.334C51.9788 37.452 50.2568 39.174 48.1388 39.174ZM48.1388 33.594C47.1788 33.594 46.3988 34.374 46.3988 35.334C46.3988 36.294 47.1788 37.074 48.1388 37.074C49.0988 37.074 49.8788 36.294 49.8788 35.334C49.8788 34.374 49.0988 33.594 48.1388 33.594Z" fill="#01AD43"/>
<path d="M69.6418 31.2H67.5418C67.5418 29.298 65.9938 27.75 64.0918 27.75V25.65C65.9938 25.65 67.5418 24.102 67.5418 22.2H69.6418C69.6418 24.102 71.1898 25.65 73.0918 25.65V27.75C71.1898 27.75 69.6418 29.298 69.6418 31.2ZM67.3378 26.7C67.8208 27.048 68.2438 27.474 68.5918 27.954C68.9398 27.471 69.3658 27.048 69.8458 26.7C69.3628 26.352 68.9398 25.926 68.5918 25.446C68.2438 25.929 67.8178 26.352 67.3378 26.7Z" fill="#01AD43"/>
<path d="M89.9175 96.828H38.2695V70.62H89.9175V96.828ZM38.5695 96.528H89.6175V70.92H38.5695V96.528Z" fill="#221C46"/>
<path d="M90.8171 97.728H37.3691V69.72H90.8171V97.728ZM39.4691 95.628H88.7171V71.82H39.4691V95.628Z" fill="#221C46"/>
<path d="M82.0927 76.416H65.4727V78.516H82.0927V76.416Z" fill="#221C46"/>
<path d="M65.143 66.372H63.043V70.884H65.143V66.372Z" fill="#221C46"/>
<path d="M60.4928 90.939H44.2988V76.413H60.4928V90.939ZM46.3988 88.839H58.3928V78.513H46.3988V88.839Z" fill="#221C46"/>
<path d="M77.4811 86.217L75.6691 84.405L73.8571 86.217L72.0451 84.405L70.2331 86.217L67.3711 83.355V76.416H80.3401V83.355L77.4781 86.217H77.4811ZM69.4741 82.485L70.2361 83.247L72.0481 81.435L73.8601 83.247L75.6721 81.435L77.4841 83.247L78.2461 82.485V78.516H69.4771V82.485H69.4741Z" fill="#221C46"/>
<path d="M91.3297 67.422H36.8557C33.7927 67.422 31.3027 64.932 31.3027 61.869V58.92H96.8857V61.869C96.8857 63.351 96.3097 64.746 95.2597 65.796C94.2097 66.846 92.8147 67.422 91.3327 67.422H91.3297ZM33.3997 61.02V61.869C33.3997 63.774 34.9477 65.322 36.8527 65.322H91.3267C92.2507 65.322 93.1177 64.962 93.7687 64.311C94.4197 63.66 94.7797 62.793 94.7797 61.869V61.02H33.4027H33.3997Z" fill="#221C46"/>
<path d="M51.1658 50.406C51.0338 49.692 50.9648 48.96 50.9648 48.231C50.9648 41.178 57.1688 35.442 64.7918 35.442C67.6088 35.442 70.3208 36.222 72.6308 37.698L71.5028 39.468C69.5288 38.208 67.2068 37.542 64.7918 37.542C58.3238 37.542 53.0648 42.336 53.0648 48.231C53.0648 48.831 53.1188 49.437 53.2298 50.025L51.1658 50.409V50.406Z" fill="#221C46"/>
<path d="M68.2154 60.6241L67.7324 58.581C70.4174 57.948 72.7844 56.451 74.3924 54.369L76.0544 55.653C74.1524 58.116 71.3684 59.883 68.2154 60.627V60.6241Z" fill="#221C46"/>
<path d="M65.1429 48.801H63.0429C63.0429 46.092 60.8379 43.887 58.1289 43.887V41.787C60.8379 41.787 63.0429 39.582 63.0429 36.873H65.1429C65.1429 39.582 67.3479 41.787 70.0569 41.787V43.887C67.3479 43.887 65.1429 46.092 65.1429 48.801ZM61.8159 42.837C62.7399 43.41 63.5199 44.19 64.0929 45.114C64.6659 44.19 65.4459 43.41 66.3699 42.837C65.4459 42.264 64.6659 41.484 64.0929 40.56C63.5199 41.484 62.7399 42.264 61.8159 42.837Z" fill="#01AD43"/>
</svg>
<svg width="120" height="120" viewBox="0 0 120 120" fill="none" xmlns="http://www.w3.org/2000/svg">
<rect width="120" height="120" fill="#E8F6FC"/>
<path d="M95.8346 95.6279H32.3516V97.7279H95.8346V95.6279Z" fill="#221C46"/>
<path d="M85.3408 36.861H83.2408V29.448L78.5938 25.605L79.9318 23.985L85.3408 28.458V36.861Z" fill="#221C46"/>
<path d="M93.2606 42.4861H92.9606C92.9606 40.9321 91.6976 39.6661 90.1406 39.6661V39.3661C91.8596 39.3661 93.2606 40.7641 93.2606 42.4861Z" fill="#221C46"/>
<path d="M94.1606 42.486H92.0606C92.0606 41.427 91.1996 40.566 90.1406 40.566V38.466C92.3576 38.466 94.1606 40.269 94.1606 42.486Z" fill="#221C46"/>
<path d="M88.2387 61.02C86.1387 61.02 84.8577 60.753 84.2757 60.594C83.6817 60.744 82.3527 61.02 80.5677 61.02C78.1887 61.02 74.6247 56.007 73.9347 55.005C72.6567 53.142 69.6777 48.36 69.6777 44.187C69.6777 40.014 71.1537 36.909 74.0607 35.163C78.3747 32.574 82.8777 34.302 84.3987 35.034C85.8807 34.32 90.1827 32.655 94.2357 35.04C97.5267 36.978 99.1257 39.972 99.1257 44.187C99.1257 48.402 96.2757 53.16 95.0517 54.993C94.3797 55.998 90.8877 61.02 88.2357 61.02H88.2387ZM79.0797 35.904C77.8287 35.904 76.4637 36.174 75.1467 36.963C72.9147 38.304 71.7837 40.734 71.7837 44.187C71.7837 50.121 79.0677 58.725 80.5887 58.92C82.6167 58.92 83.9637 58.503 83.9757 58.497L84.3267 58.386L84.6627 58.515C84.6897 58.524 85.8177 58.917 88.2387 58.917C88.8177 58.917 90.8997 57.423 93.3087 53.823C95.6367 50.34 97.0287 46.737 97.0287 44.184C97.0287 39.645 94.8297 37.824 93.1737 36.846C89.3607 34.599 84.9777 37.095 84.9357 37.119L84.4077 37.428L83.8767 37.119C83.8467 37.101 81.7257 35.901 79.0827 35.901L79.0797 35.904Z" fill="#221C46"/>
<path d="M28.0422 45.2562L26.9922 47.0749L30.8633 49.3099L31.9133 47.4912L28.0422 45.2562Z" fill="#221C46"/>
<path d="M44.6571 45.8141L39.7402 55.531L41.614 56.4791L46.5308 46.7623L44.6571 45.8141Z" fill="#221C46"/>
<path d="M53.9069 51.3106L51.7539 55.5233L53.6239 56.479L55.7768 52.2663L53.9069 51.3106Z" fill="#221C46"/>
<path d="M72.4111 61.0199H38.7151C35.7421 61.0199 32.9161 59.5919 31.1551 57.2009C29.4241 54.8519 28.8841 51.8009 29.6971 49.0049V48.9989L29.7451 48.8459C29.7451 48.8459 29.7511 48.8249 29.7541 48.8129V48.8009C30.6061 46.1129 32.6011 43.9919 35.2351 42.9809C37.8841 41.9639 40.8001 42.2129 43.2421 43.6619L72.4141 61.0199H72.4111ZM31.7341 49.5119C31.0711 51.7049 31.4821 54.1079 32.8441 55.9529C34.2121 57.8099 36.4081 58.9199 38.7151 58.9199H64.7761L42.1651 45.4649C40.2841 44.3459 38.0311 44.1539 35.9851 44.9399C33.9901 45.7079 32.4691 47.2979 31.7941 49.3199V49.3649L31.7341 49.5119Z" fill="#221C46"/>
<path d="M27.8993 47.6009L24.5333 45.6569C21.1553 43.7069 19.9943 39.3719 21.9443 35.9939L23.8883 32.6279L27.2543 34.5719C28.8893 35.5169 30.0593 37.0409 30.5483 38.8649C31.0373 40.6889 30.7853 42.5939 29.8433 44.2319L27.8993 47.5979V47.6009ZM24.6563 35.4989L23.7623 37.0469C23.0993 38.1959 22.9223 39.5369 23.2643 40.8209C23.6093 42.1049 24.4313 43.1759 25.5803 43.8389L27.1283 44.7329L28.0223 43.1849C28.6853 42.0359 28.8623 40.6949 28.5203 39.4109C28.1753 38.1269 27.3533 37.0559 26.2043 36.3929L24.6563 35.4989Z" fill="#221C46"/>
<path d="M48.1388 39.174C46.0208 39.174 44.2988 37.452 44.2988 35.334C44.2988 33.216 46.0208 31.494 48.1388 31.494C50.2568 31.494 51.9788 33.216 51.9788 35.334C51.9788 37.452 50.2568 39.174 48.1388 39.174ZM48.1388 33.594C47.1788 33.594 46.3988 34.374 46.3988 35.334C46.3988 36.294 47.1788 37.074 48.1388 37.074C49.0988 37.074 49.8788 36.294 49.8788 35.334C49.8788 34.374 49.0988 33.594 48.1388 33.594Z" fill="#01AD43"/>
<path d="M69.6418 31.2H67.5418C67.5418 29.298 65.9938 27.75 64.0918 27.75V25.65C65.9938 25.65 67.5418 24.102 67.5418 22.2H69.6418C69.6418 24.102 71.1898 25.65 73.0918 25.65V27.75C71.1898 27.75 69.6418 29.298 69.6418 31.2ZM67.3378 26.7C67.8208 27.048 68.2438 27.474 68.5918 27.954C68.9398 27.471 69.3658 27.048 69.8458 26.7C69.3628 26.352 68.9398 25.926 68.5918 25.446C68.2438 25.929 67.8178 26.352 67.3378 26.7Z" fill="#01AD43"/>
<path d="M89.9175 96.828H38.2695V70.62H89.9175V96.828ZM38.5695 96.528H89.6175V70.92H38.5695V96.528Z" fill="#221C46"/>
<path d="M90.8171 97.728H37.3691V69.72H90.8171V97.728ZM39.4691 95.628H88.7171V71.82H39.4691V95.628Z" fill="#221C46"/>
<path d="M82.0927 76.416H65.4727V78.516H82.0927V76.416Z" fill="#221C46"/>
<path d="M65.143 66.372H63.043V70.884H65.143V66.372Z" fill="#221C46"/>
<path d="M60.4928 90.939H44.2988V76.413H60.4928V90.939ZM46.3988 88.839H58.3928V78.513H46.3988V88.839Z" fill="#221C46"/>
<path d="M77.4811 86.217L75.6691 84.405L73.8571 86.217L72.0451 84.405L70.2331 86.217L67.3711 83.355V76.416H80.3401V83.355L77.4781 86.217H77.4811ZM69.4741 82.485L70.2361 83.247L72.0481 81.435L73.8601 83.247L75.6721 81.435L77.4841 83.247L78.2461 82.485V78.516H69.4771V82.485H69.4741Z" fill="#221C46"/>
<path d="M91.3297 67.422H36.8557C33.7927 67.422 31.3027 64.932 31.3027 61.869V58.92H96.8857V61.869C96.8857 63.351 96.3097 64.746 95.2597 65.796C94.2097 66.846 92.8147 67.422 91.3327 67.422H91.3297ZM33.3997 61.02V61.869C33.3997 63.774 34.9477 65.322 36.8527 65.322H91.3267C92.2507 65.322 93.1177 64.962 93.7687 64.311C94.4197 63.66 94.7797 62.793 94.7797 61.869V61.02H33.4027H33.3997Z" fill="#221C46"/>
<path d="M51.1658 50.406C51.0338 49.692 50.9648 48.96 50.9648 48.231C50.9648 41.178 57.1688 35.442 64.7918 35.442C67.6088 35.442 70.3208 36.222 72.6308 37.698L71.5028 39.468C69.5288 38.208 67.2068 37.542 64.7918 37.542C58.3238 37.542 53.0648 42.336 53.0648 48.231C53.0648 48.831 53.1188 49.437 53.2298 50.025L51.1658 50.409V50.406Z" fill="#221C46"/>
<path d="M68.2154 60.6241L67.7324 58.581C70.4174 57.948 72.7844 56.451 74.3924 54.369L76.0544 55.653C74.1524 58.116 71.3684 59.883 68.2154 60.627V60.6241Z" fill="#221C46"/>
<path d="M65.1429 48.801H63.0429C63.0429 46.092 60.8379 43.887 58.1289 43.887V41.787C60.8379 41.787 63.0429 39.582 63.0429 36.873H65.1429C65.1429 39.582 67.3479 41.787 70.0569 41.787V43.887C67.3479 43.887 65.1429 46.092 65.1429 48.801ZM61.8159 42.837C62.7399 43.41 63.5199 44.19 64.0929 45.114C64.6659 44.19 65.4459 43.41 66.3699 42.837C65.4459 42.264 64.6659 41.484 64.0929 40.56C63.5199 41.484 62.7399 42.264 61.8159 42.837Z" fill="#01AD43"/>
</svg>
