<svg width="120" height="120" viewBox="0 0 120 120" fill="none" xmlns="http://www.w3.org/2000/svg">
<rect width="120" height="120" fill="#E8F6FC"/>
<path d="M34.4918 89.2049H16.8008V75.0239H21.9188L25.4108 71.6639C27.1658 69.9749 29.4758 69.0419 31.9118 69.0419H35.2208L39.3758 75.5069L37.6088 76.6439L34.0718 71.1449H31.9088C30.0188 71.1449 28.2278 71.8679 26.8628 73.1789L22.7618 77.1269H18.9008V87.1079H34.3928L58.4348 84.8459C58.2848 84.3299 58.0058 83.8529 57.6248 83.4689C57.0188 82.8599 56.1788 82.5089 55.3208 82.5089V80.4089C56.7368 80.4089 58.1198 80.9849 59.1158 81.9899C60.1118 82.9949 60.6788 84.3839 60.6668 85.7999L60.6578 86.7479L34.4888 89.2109L34.4918 89.2049Z" fill="#221C46"/>
<path d="M96.5666 82.503H35.3216C31.7756 82.503 28.8926 79.617 28.8926 76.074V75.024H102.996V76.074C102.996 79.62 100.11 82.503 96.5666 82.503ZM31.1216 77.124C31.5926 79.005 33.2966 80.403 35.3216 80.403H96.5666C98.5916 80.403 100.299 79.005 100.77 77.124H31.1216Z" fill="#221C46"/>
<path d="M38.4243 58.68H40.5243C40.5243 57.171 39.7773 55.626 39.0573 54.132C38.4393 52.851 37.7973 51.528 37.7973 50.499H35.6973C35.6973 52.008 36.4443 53.553 37.1643 55.044C37.7823 56.325 38.4243 57.648 38.4243 58.677V58.68Z" fill="#FF7375"/>
<path d="M43.7583 58.68H45.8583C45.8583 57.171 45.1113 55.626 44.3913 54.132C43.7733 52.851 43.1313 51.528 43.1313 50.499H41.0312C41.0312 52.008 41.7783 53.553 42.4983 55.044C43.1163 56.325 43.7583 57.648 43.7583 58.677V58.68Z" fill="#FF7375"/>
<path d="M49.0951 58.68H51.1951C51.1951 57.171 50.4481 55.626 49.7281 54.132C49.1101 52.851 48.4711 51.528 48.4711 50.499H46.3711C46.3711 52.008 47.1181 53.553 47.8381 55.044C48.4561 56.325 49.0981 57.648 49.0981 58.677L49.0951 58.68Z" fill="#FF7375"/>
<path d="M33.1797 60.621V61.671C33.1797 67.098 37.0887 77.124 42.6627 77.124V75.024C41.0007 75.024 39.1677 73.329 37.6347 70.371C37.1817 69.498 36.7797 68.556 36.4407 67.596H53.1027C52.7637 68.553 52.3617 69.495 51.9087 70.371C50.3727 73.326 48.5397 75.024 46.8807 75.024V77.124C52.4517 77.124 56.3637 67.101 56.3637 61.671V60.621H33.1797ZM35.8077 65.496C35.5677 64.536 35.4027 63.594 35.3277 62.721H54.2097C54.1347 63.594 53.9697 64.536 53.7297 65.496H35.8047H35.8077Z" fill="#221C46"/>
<path d="M64.7217 55.0619L64.3257 49.7819L58.1217 43.5779L56.6367 45.0629L62.2887 50.7149L62.6157 55.0589H56.9517L58.6107 77.1179H71.0457L72.7047 55.0589H64.7247L64.7217 55.0619ZM70.4367 57.1619L70.1757 60.6209H65.1357L64.8747 57.1619H70.4337H70.4367ZM59.6307 62.7209H63.1887L63.6927 69.4139H60.1347L59.6307 62.7209ZM65.7987 69.4139L65.2947 62.7209H70.0167L69.5127 69.4139H65.7957H65.7987ZM62.7717 57.1619L63.0327 60.6209H59.4747L59.2137 57.1619H62.7717ZM60.5547 75.0209L60.2907 71.5109H69.3567L69.0927 75.0209H60.5547Z" fill="#221C46"/>
<path d="M91.2816 53.9071L86.9916 45.4201C86.4936 44.4331 86.2296 43.3261 86.2296 42.2191V32.0581H79.9296V42.2191C79.9296 43.3261 79.6656 44.4331 79.1676 45.4201L74.8776 53.9071C74.2296 55.1881 73.8906 56.6221 73.8906 58.0561V77.1241H92.2716V58.0561C92.2716 56.6221 91.9296 55.1881 91.2846 53.9071H91.2816ZM90.1686 58.0561V69.4141H84.1266V57.1621H90.1086C90.1476 57.4591 90.1656 57.7561 90.1656 58.0531L90.1686 58.0561ZM84.1266 34.1611V36.5071H82.0266V34.1611H84.1266ZM76.7496 54.8581L81.0396 46.3711C81.6876 45.0931 82.0296 43.6561 82.0296 42.2221V38.6101H84.1296V42.2221C84.1296 43.6561 84.4716 45.0901 85.1166 46.3711L89.4066 54.8581C89.4426 54.9271 89.4726 54.9961 89.5056 55.0681H82.0296V60.6271H75.9876V58.0591C75.9876 56.9521 76.2516 55.8451 76.7496 54.8581ZM75.9876 75.0271V62.7241H82.0296V71.5171H90.1716V75.0271H75.9906H75.9876Z" fill="#221C46"/>
<path d="M102.753 65.4001C102.753 62.7661 100.608 60.6211 97.9743 60.6211C95.3403 60.6211 93.1953 62.7661 93.1953 65.4001C93.1953 67.6741 94.7943 69.5791 96.9243 70.0591V75.9871H99.0243V70.0591C101.154 69.5791 102.753 67.6741 102.753 65.4001ZM97.9743 68.0791C96.4983 68.0791 95.2953 66.8761 95.2953 65.4001C95.2953 63.9241 96.4983 62.7211 97.9743 62.7211C99.4503 62.7211 100.653 63.9241 100.653 65.4001C100.653 66.8761 99.4503 68.0791 97.9743 68.0791Z" fill="#FF7375"/>
<path d="M71.0514 44.9911C68.3724 44.9911 66.1914 42.8101 66.1914 40.1311C66.1914 37.4521 68.3724 35.2711 71.0514 35.2711C73.7304 35.2711 75.9114 37.4521 75.9114 40.1311C75.9114 42.8101 73.7304 44.9911 71.0514 44.9911ZM71.0514 37.3711C69.5304 37.3711 68.2914 38.6101 68.2914 40.1311C68.2914 41.6521 69.5304 42.8911 71.0514 42.8911C72.5724 42.8911 73.8114 41.6521 73.8114 40.1311C73.8114 38.6101 72.5724 37.3711 71.0514 37.3711Z" fill="#FF7375"/>
<path d="M52.7913 41.178H26.1543V40.128C26.1543 37.293 28.4583 34.989 31.2933 34.989C32.7663 34.989 34.0953 35.61 35.0313 36.606C36.4203 33.261 39.7203 30.9 43.5633 30.9C48.6513 30.9 52.7913 35.04 52.7913 40.128V41.178ZM36.5103 39.078H50.6133C50.1033 35.643 47.1363 33 43.5603 33C39.9843 33 37.0173 35.643 36.5073 39.078H36.5103ZM28.4403 39.078H34.1463C33.7173 37.917 32.6013 37.089 31.2933 37.089C29.9853 37.089 28.8693 37.917 28.4403 39.078Z" fill="#221C46"/>
</svg>
